<svg xmlns="http://www.w3.org/2000/svg" viewBox="0 0 700 540" width="700" height="540" style="background-color:#0f172a;font-family:system-ui,-apple-system,sans-serif;">
  <text x="40" y="40" fill="#f8fafc" font-size="20" font-weight="bold">AI Dev Team System Architecture</text>
  <text x="40" y="60" fill="#94a3b8" font-size="13">Two-Loop Supervision, Tiered Memory, and Multi-Team Delegation Engine</text>
  <line x1="130" y1="140" x2="350" y2="80" stroke="#64748b" stroke-width="2"  />
  <text x="240" y="105" fill="#38bdf8" font-size="11" text-anchor="middle">defects</text>
  <line x1="350" y1="140" x2="570" y2="80" stroke="#64748b" stroke-width="2"  />
  <text x="460" y="105" fill="#38bdf8" font-size="11" text-anchor="middle">approved_ticket</text>
  <line x1="570" y1="140" x2="130" y2="220" stroke="#64748b" stroke-width="2"  />
  <text x="350" y="175" fill="#38bdf8" font-size="11" text-anchor="middle">delegate</text>
  <line x1="570" y1="140" x2="350" y2="220" stroke="#64748b" stroke-width="2"  />
  <text x="460" y="175" fill="#38bdf8" font-size="11" text-anchor="middle">delegate</text>
  <line x1="570" y1="140" x2="570" y2="220" stroke="#64748b" stroke-width="2"  />
  <text x="570" y="175" fill="#38bdf8" font-size="11" text-anchor="middle">delegate</text>
  <line x1="130" y1="280" x2="130" y2="360" stroke="#64748b" stroke-width="2"  />
  <text x="130" y="315" fill="#38bdf8" font-size="11" text-anchor="middle">executes</text>
  <line x1="350" y1="280" x2="130" y2="360" stroke="#64748b" stroke-width="2"  />
  <text x="240" y="315" fill="#38bdf8" font-size="11" text-anchor="middle">executes</text>
  <line x1="570" y1="280" x2="130" y2="360" stroke="#64748b" stroke-width="2"  />
  <text x="350" y="315" fill="#38bdf8" font-size="11" text-anchor="middle">executes</text>
  <line x1="130" y1="420" x2="350" y2="360" stroke="#64748b" stroke-width="2"  />
  <text x="240" y="385" fill="#38bdf8" font-size="11" text-anchor="middle">validate</text>
  <line x1="350" y1="420" x2="570" y2="360" stroke="#64748b" stroke-width="2"  />
  <text x="460" y="385" fill="#38bdf8" font-size="11" text-anchor="middle">records_episode</text>
  <g transform="translate(40, 80)">
    <rect width="180" height="60" rx="8" fill="#1e293b" stroke="#38bdf8" stroke-width="1.5" />
    <text x="90" y="35" fill="#f1f5f9" font-size="14" font-weight="600" text-anchor="middle">Scanner Agent</text>
  </g>
  <g transform="translate(260, 80)">
    <rect width="180" height="60" rx="8" fill="#1e293b" stroke="#38bdf8" stroke-width="1.5" />
    <text x="90" y="35" fill="#f1f5f9" font-size="14" font-weight="600" text-anchor="middle">Triage Agent</text>
  </g>
  <g transform="translate(480, 80)">
    <rect width="180" height="60" rx="8" fill="#1e293b" stroke="#38bdf8" stroke-width="1.5" />
    <text x="90" y="35" fill="#f1f5f9" font-size="14" font-weight="600" text-anchor="middle">Two-Loop Manager</text>
  </g>
  <g transform="translate(40, 220)">
    <rect width="180" height="60" rx="8" fill="#2e1065" stroke="#c084fc" stroke-width="1.5" />
    <text x="90" y="35" fill="#f1f5f9" font-size="14" font-weight="600" text-anchor="middle">Production Team</text>
  </g>
  <g transform="translate(260, 220)">
    <rect width="180" height="60" rx="8" fill="#2e1065" stroke="#c084fc" stroke-width="1.5" />
    <text x="90" y="35" fill="#f1f5f9" font-size="14" font-weight="600" text-anchor="middle">Debugging Team</text>
  </g>
  <g transform="translate(480, 220)">
    <rect width="180" height="60" rx="8" fill="#2e1065" stroke="#c084fc" stroke-width="1.5" />
    <text x="90" y="35" fill="#f1f5f9" font-size="14" font-weight="600" text-anchor="middle">Deployment Team</text>
  </g>
  <g transform="translate(40, 360)">
    <rect width="180" height="60" rx="8" fill="#1e293b" stroke="#475569" stroke-width="1.5" />
    <text x="90" y="35" fill="#f1f5f9" font-size="14" font-weight="600" text-anchor="middle">16-Skill Catalog</text>
  </g>
  <g transform="translate(260, 360)">
    <rect width="180" height="60" rx="8" fill="#1e293b" stroke="#475569" stroke-width="1.5" />
    <text x="90" y="35" fill="#f1f5f9" font-size="14" font-weight="600" text-anchor="middle">Verification Gates</text>
  </g>
  <g transform="translate(480, 360)">
    <rect width="180" height="60" rx="8" fill="#1e3a5f" stroke="#0284c7" stroke-width="1.5" />
    <text x="90" y="35" fill="#f1f5f9" font-size="14" font-weight="600" text-anchor="middle">Tiered Memory (.aidev)</text>
  </g>
</svg>